<?xml version="1.0" encoding="UTF-8"?>
<!DOCTYPE svg PUBLIC "-//W3C//DTD SVG 1.1//EN" "http://www.w3.org/Graphics/SVG/1.1/DTD/svg11.dtd">
<!-- Creator: CorelDRAW -->
<svg xmlns="http://www.w3.org/2000/svg" xml:space="preserve" width="2400px" height="2100px" style="shape-rendering:geometricPrecision; text-rendering:geometricPrecision; image-rendering:optimizeQuality; fill-rule:evenodd; clip-rule:evenodd"
viewBox="0 0 2400 2028"
 xmlns:xlink="http://www.w3.org/1999/xlink">
 <defs>
  <style type="text/css">
   <![CDATA[
    .fil1 {fill:black}
    .fil4 {fill:#333333}
    .fil2 {fill:#4C4C4C}
    .fil3 {fill:#7F7F7F}
    .fil8 {fill:#BA001F}
    .fil5 {fill:#DC0E00}
    .fil6 {fill:#FE8B00}
    .fil7 {fill:white}
    .fil0 {fill:#fff;fill-rule:nonzero}
   ]]>
  </style>
 </defs>
 <g id="Слой_x0020_1">
  <metadata id="CorelCorpID_0Corel-Layer"/>
  <path class="fil0" d="M2242.25 2028l0.144 -40.4904 4.668 0 2.2896 0 0.2172 0c3.99,-0.3744 7.4328,-2.13 10.17,-5.2536 3.3276,-3.7716 5.9208,-9.054 7.8084,-15.8052 1.902,-6.7644 3.3132,-14.6964 4.2792,-23.8212 0.936,-9.126 1.6272,-19.0008 2.016,-29.6808l1.614 -44.9952 104.056 0 0 119.556 20.4852 0 0 40.4904 -24.3456 0 0 -18.1944 -108.896 0 0 18.1944 -24.5052 0zm-848.654 -192.764l51.6756 0 0 22.0944 -51.6756 0 0 -22.0944zm-1305.82 174.57l0 -141.852 96.348 0 -0.216 22.296 -76.4388 0 6.0792 -6.2904 0.2016 125.846 -25.974 0zm121.804 0l0 -141.852 58.4172 0c12.5628,0 23.3676,2.0436 32.3568,6.0888 8.9892,4.044 15.9048,9.8448 20.7732,17.4444 4.884,7.5432 7.3044,16.5252 7.3044,26.9316 0,10.392 -2.4204,19.3884 -7.3044,26.946 -4.8684,7.5708 -11.784,13.3716 -20.7732,17.4312 -8.9892,4.044 -19.794,6.0876 -32.3568,6.0876l-43.794 0 10.4292 -10.9824 -10.4292 -11.3136 42.5844 0c11.6256,0 20.3844,-2.4756 26.262,-7.398 5.892,-4.9236 8.802,-11.8608 8.802,-20.7708 0,-9.054 -2.91,-16.0056 -8.802,-20.8716 -5.8776,-4.8504 -14.6364,-7.2972 -26.262,-7.2972l-42.5844 0 11.7552 -12.9696 0 79.2252 0 2.8356 0 50.4648 -26.3784 0zm120.811 0l63.8628 -141.852 25.974 0 64.0644 141.852 -27.5736 0 -14.1036 -32.8176 -70.9944 0 -14.0604 32.8176 -27.1692 0zm103.336 -53.4876l-31.968 -74.3592 10.56 0 -31.8516 74.3592 53.2596 0zm175.423 -88.3644l26.3784 0 0 141.852 -26.3784 0 0 -60.7716 -73.428 0 0 60.7716 -26.3484 0 0 -141.852 26.3484 0 0 58.5828 73.428 0 0 -58.5828zm69.6684 141.852l0 -141.852 25.9752 0 0 100.714 76.2516 -100.714 24.5484 0 0 141.852 -25.9752 0 0 -100.513 -76.266 100.513 -24.534 0zm199.699 0l0 -126.034 6.2808 6.4776 -53.13 0 0 -22.296 120.047 0 0 22.296 -53.1012 0 6.0648 -6.4776 0 126.034 -26.1612 0zm199.064 -141.852l26.364 0 0 141.852 -26.364 0 0 -60.7716 -73.4136 0 0 60.7716 -26.3784 0 0 -141.852 26.3784 0 0 58.5828 73.4136 0 0 -58.5828zm134.971 48.0324c16.9128,0 29.9508,3.786 39.156,11.3424 9.192,7.5708 13.7724,18.9132 13.7724,34.056 0,15.9336 -5.0268,27.996 -15.0972,36.1716 -10.0704,8.148 -24.102,12.2496 -42.0948,12.2496l-61.0536 0 0 -141.852 25.9884 0 0 48.0324 39.3288 0zm-5.46 73.5528c10.128,0 18.0084,-2.3604 23.6268,-7.0956 5.604,-4.722 8.3988,-11.6016 8.3988,-20.6556 0,-8.91 -2.766,-15.4452 -8.298,-19.5468 -5.5464,-4.1316 -13.47,-6.1896 -23.7276,-6.1896l-33.8688 0 0 53.4876 33.8688 0zm78.8892 20.2668l0 -141.852 25.9596 0 0 141.852 -25.9596 0zm69.4524 0l0 -141.852 25.9884 0 0 100.714 76.2516 -100.714 24.534 0 0 141.852 -25.9596 0 0 -100.513 -76.2528 100.513 -24.5616 0zm264.497 -13.9764l8.514 -19.2444c6.0792,4.1736 12.7356,7.3836 19.9668,9.6144 7.2324,2.232 14.4504,3.4116 21.6096,3.5556 7.1604,0.1296 13.686,-0.6912 19.5636,-2.4324 5.8776,-1.7556 10.5744,-4.3896 14.0892,-7.902 3.5292,-3.5268 5.2728,-7.9164 5.2728,-13.1856 0,-6.3468 -2.5932,-11.0976 -7.8084,-14.2932 -5.2152,-3.1668 -12.2592,-4.7496 -21.1908,-4.7496l-33.0624 0 0 -20.6556 31.0308 0c7.9812,0 14.1612,-1.6404 18.5556,-4.8792 4.3932,-3.2388 6.5832,-7.6284 6.5832,-13.1568 0,-4.6056 -1.4412,-8.406 -4.3368,-11.3424 -2.91,-2.9796 -6.8424,-5.2104 -11.7696,-6.7068 -4.9272,-1.4832 -10.488,-2.202 -16.6392,-2.13 -6.1512,0.0708 -12.5328,1.0068 -19.1748,2.8356 -6.612,1.8276 -12.9072,4.5048 -18.8424,8.0028l-8.3268 -21.2604c8.946,-4.7352 18.2952,-8.046 28.092,-9.9456 9.81,-1.872 19.3188,-2.4192 28.5096,-1.6272 9.1764,0.8352 17.46,2.9076 24.822,6.2904 7.3752,3.3828 13.3116,7.8012 17.7624,13.2852 4.4664,5.4696 6.6852,11.904 6.6852,19.3464 0,6.7356 -1.7868,12.738 -5.3736,17.9196 -3.5736,5.2116 -8.4708,9.2412 -14.6952,12.0768 -6.2232,2.8356 -13.4544,4.2612 -21.7092,4.2612l1.0224 -6.5064c9.3204,0 17.46,1.5972 24.4332,4.7784 6.972,3.1812 12.36,7.5144 16.2216,13.056 3.846,5.556 5.7768,11.9616 5.7768,19.2444 0,6.9096 -1.7436,13.0116 -5.2728,18.3528 -3.5016,5.34 -8.298,9.8016 -14.3772,13.3716 -6.0948,3.5844 -13.0668,6.2184 -20.904,7.902 -7.8372,1.6992 -16.092,2.3316 -24.7356,1.9296 -8.658,-0.4176 -17.2728,-1.9008 -25.8732,-4.4628 -8.5716,-2.562 -16.7256,-6.3336 -24.4188,-11.3424zm130.924 13.9764l63.8916 -141.852 25.9452 0 64.0932 141.852 -27.588 0 -14.118 -32.8176 -70.9932 0 -14.0604 32.8176 -27.1704 0zm103.336 -53.4876l-31.9668 -74.3592 10.5588 0 -31.8516 74.3592 53.2596 0zm75.8484 53.4876l0 -141.852 63.474 0c15.9768,0 28.4088,3.1524 37.326,9.4416 8.9172,6.2616 13.3836,15.3012 13.3836,27.0468 0,11.616 -4.2492,20.5548 -12.7632,26.8452 -8.5296,6.2892 -19.752,9.4128 -33.654,9.4128l3.6312 -7.2972c15.8172,0 28.0488,3.1956 36.7068,9.5136 8.658,6.3624 12.9804,15.5604 12.9804,27.5796 0,12.3072 -4.5384,21.9216 -13.5996,28.8744 -9.048,6.9516 -22.4304,10.4352 -40.1508,10.4352l-67.3344 0zm25.9752 -81.2544l35.28 0c8.514,0 15.012,-1.7268 19.4772,-5.1816 4.4664,-3.426 6.684,-8.406 6.684,-14.8692 0,-6.7788 -2.2176,-11.8308 -6.684,-15.2136 -4.4652,-3.3828 -10.9632,-5.0808 -19.4772,-5.0808l-35.28 0 0 40.3452zm0 60.9876l40.5528 0c9.1908,0 16.1496,-1.7124 20.8884,-5.1672 4.7256,-3.4404 7.0884,-8.7228 7.0884,-15.9048 0,-7.1544 -2.3628,-12.3936 -7.0884,-15.69 -4.7388,-3.3108 -11.6976,-4.98 -20.8884,-4.98l-40.5528 0 0 41.742zm194.396 22.296c-11.0928,0 -21.2928,-1.8276 -30.642,-5.4696 -9.306,-3.6408 -17.4312,-8.7516 -24.3324,-15.3144 -6.8712,-6.5352 -12.2304,-14.25 -16.0044,-23.088 -3.804,-8.8524 -5.676,-18.54 -5.676,-29.076 0,-10.5504 1.872,-20.2524 5.676,-29.0904 3.774,-8.8236 9.1332,-16.5384 16.0044,-23.088 6.9012,-6.5496 15.0264,-11.6448 24.3324,-15.3012 9.3492,-3.6552 19.4772,-5.4696 30.4404,-5.4696 11.0784,0 21.264,1.8144 30.5124,5.4696 9.2772,3.6564 17.3592,8.7516 24.246,15.3012 6.8856,6.5496 12.2448,14.2644 16.0188,23.088 3.804,8.838 5.676,18.54 5.676,29.0904 0,10.536 -1.872,20.2668 -5.676,29.1912 -3.774,8.91 -9.1332,16.6248 -16.0188,23.088 -6.8868,6.4908 -14.9688,11.5584 -24.246,15.1992 -9.2484,3.642 -19.3476,5.4696 -30.3108,5.4696zm-0.2016 -23.1156c7.1604,0 13.8012,-1.2096 19.8804,-3.6276 6.0936,-2.4324 11.352,-5.9304 15.8184,-10.4364 4.4508,-4.5336 7.938,-9.8016 10.4448,-15.8184 2.4768,-5.988 3.7452,-12.6384 3.7452,-19.95 0,-7.2984 -1.2684,-13.962 -3.7452,-19.9644 -2.5068,-6.0168 -5.994,-11.2704 -10.4448,-15.8052 -4.4664,-4.5192 -9.7248,-8.0028 -15.8184,-10.4208 -6.0792,-2.4468 -12.72,-3.6564 -19.8804,-3.6564 -7.1604,0 -13.758,1.2096 -19.7652,3.6564 -6.0216,2.418 -11.3088,5.9016 -15.8184,10.4208 -4.5228,4.5348 -8.0532,9.7884 -10.56,15.8052 -2.4768,6.0024 -3.7452,12.666 -3.7452,19.9644 0,7.1676 1.2684,13.7748 3.7452,19.8492 2.5068,6.0888 5.994,11.3856 10.4448,15.9192 4.4664,4.506 9.7248,8.004 15.8184,10.4364 6.0792,2.418 12.72,3.6276 19.8804,3.6276zm131.37 -1.2096l71.9736 0 0 -97.26 -55.5792 0 -1.0224 25.1172c-0.39,9.4716 -0.966,18.4248 -1.7148,26.874 -0.7344,8.4348 -1.902,16.092 -3.4572,23.0016 -1.542,6.8796 -3.66,12.6228 -6.354,17.2008 -1.1664,1.9572 -2.4768,3.684 -3.846,5.0664z"/>
  <path class="fil0" d="M2119.26 1531.82l0 -352.834 -106.022 0 0 356.64c0,67.6872 30.624,121.681 78.5064,154.685 65.5608,45.1452 175.31,43.044 239.014,-6.8064 42.5304,-33.3768 69.2412,-84.6384 69.2412,-147.878l0 -356.64 -105.252 0 0 352.834c0,129.936 -175.487,130.555 -175.487,0zm-1635.9 -352.729l-121.891 0 -120.218 353.536 -120.208 -353.536 -121.038 0 197.546 542.473 87.4092 0 198.4 -542.473zm394.098 382.884c0,-67.092 -41.6544,-103.33 -73.5168,-123.374 29.4084,-19.2744 65.3496,-55.5228 65.3496,-114.116 0,-97.1424 -80.8668,-156.506 -178.068,-156.506 -97.1904,0 -178.874,59.364 -178.874,156.506 0,58.5936 35.9292,94.842 65.3496,114.116 -31.8624,20.0448 -72.6996,56.2824 -72.6996,123.374 0,106.388 83.3088,164.352 186.224,164.352 102.926,0 186.235,-57.9636 186.235,-164.352zm-114.354 -234.397c0,40.0776 -30.2148,69.3924 -71.8812,69.3924 -41.6544,0 -72.6876,-29.3148 -72.6876,-69.3924 0,-39.3312 31.0332,-69.4044 72.6876,-69.4044 41.6664,0 71.8812,30.0732 71.8812,69.4044zm8.1672 232.844c0,42.402 -35.1348,75.5688 -80.0484,75.5688 -44.9256,0 -80.0376,-33.1668 -80.0376,-75.5688 0,-42.4128 35.112,-76.326 80.0376,-76.326 44.9136,0 80.0484,33.9132 80.0484,76.326zm549.71 1.5528c0,-67.092 -41.6544,-103.33 -73.506,-123.374 29.3976,-19.2744 65.3376,-55.5228 65.3376,-114.116 0,-97.1424 -80.8656,-156.506 -178.068,-156.506 -97.1892,0 -178.862,59.364 -178.862,156.506 0,58.5936 35.9292,94.842 65.3388,114.116 -31.8516,20.0448 -72.6996,56.2824 -72.6996,123.374 0,106.388 83.3088,164.352 186.223,164.352 102.928,0 186.236,-57.9636 186.236,-164.352zm-114.354 -234.397c0,40.0776 -30.216,69.3924 -71.8824,69.3924 -41.6544,0 -72.6756,-29.3148 -72.6756,-69.3924 0,-39.3312 31.0212,-69.4044 72.6756,-69.4044 41.6664,0 71.8824,30.0732 71.8824,69.4044zm8.178 232.844c0,42.402 -35.1336,75.5688 -80.0604,75.5688 -44.9256,0 -80.0364,-33.1668 -80.0364,-75.5688 0,-42.4128 35.1108,-76.326 80.0364,-76.326 44.9268,0 80.0604,33.9132 80.0604,76.326zm268.867 161.142l0 -114.106 -114.961 0 0 114.106 114.961 0zm477.793 0.0108l-121.26 -233.942c52.6152,-19.0524 99.1536,-66.3096 99.1536,-142.52 0,-90.6744 -65.6076,-166.126 -176.2,-166.126l-212.782 0 0 542.588 106 0 0 -216.431 76.2744 0 106.024 216.431 122.79 0zm-128.13 -376.463c0,41.9112 -30.5076,71.634 -77.034,71.634l-99.924 0 0 -143.256 99.924 0c46.5264,0 77.034,29.712 77.034,71.622z"/>
  <path class="fil1" d="M1190.8 705.686l117.659 -28.17 -72.4188 323.665 -45.2016 29.3292c-18.8472,-94.9092 -31.458,-214.43 -0.0384,-324.824z"/>
  <path class="fil1" d="M1190.83 637.009l96.8664 -22.7676 108.966 -25.6332 -51.5076 62.0472 -154.332 36.348c-14.0184,-16.0524 -2.6232,-33.2148 0.0072,-49.9944z"/>
  <path class="fil2" d="M1190.9 549.702c-0.7896,-2.9904 -2.7576,-3.7344 -5.418,-4.3812 -88.0764,-21.4908 -198.895,-60.054 -287.458,-64.47l66.4836 79.7076 226.314 53.28c11.9364,-20.76 19.9752,-41.8464 0.078,-64.1364z"/>
  <path class="fil2" d="M1190.82 399.127l-112.349 -26.3508 -133.104 -31.1988 18.456 68.1072 226.957 53.2656c15.4836,-19.7028 15.4632,-41.046 0.0396,-63.8232z"/>
  <polygon class="fil2" points="1190.82,705.679 1073.16,677.509 1145.82,1001.29 1190.84,1030.51 "/>
  <path class="fil3" d="M1190.81 486.077l-103.804 -24.3276 -123.058 -28.806 -65.928 47.9028 292.778 68.97c17.082,-21.0864 22.6164,-42.2988 0.0108,-63.7392z"/>
  <path class="fil1" d="M1190.8 548.647c93.3672,-37.8828 191.118,-59.2404 292.866,-67.7952l-66.3576 79.6596 -226.508 53.3352 0 -65.1996z"/>
  <polygon class="fil4" points="1190.81,486.077 1294.68,461.756 1417.74,432.95 1483.67,480.853 1190.8,549.81 "/>
  <polygon class="fil1" points="1190.78,399.127 1303.23,372.776 1436.33,341.578 1417.87,409.685 1190.79,462.943 "/>
  <path class="fil4" d="M1190.83 637.002l-96.8664 -22.7676 -108.515 -25.5132 51.5388 62.0424 153.827 36.2388c0.0084,-16.6704 0.0156,-33.3348 0.0156,-50.0004z"/>
  <path class="fil5" d="M1156.18 -0.0012c77.64,12.6468 203.761,290.239 34.1712,380.862 -204.235,-122.738 43.4544,-173.54 -34.1712,-380.862z"/>
  <path class="fil6" d="M1206.62 73.5264c105.014,203.176 -2.3556,279.353 -19.4808,287.617 -73.2672,-62.8956 -49.7004,-113.995 -22.2264,-164.21 -0.0648,47.748 10.0812,71.6028 23.5188,80.1972 -1.4628,-2.7528 -2.4132,-5.7672 -2.592,-8.5044 7.6764,59.844 14.964,6.2088 29.8956,-15.4416 11.0316,-41.3724 12.5916,-102.499 -9.1152,-179.658z"/>
  <path class="fil7" d="M1199.61 153.869c63.336,122.021 1.3776,179.132 -9.8712,184.558 -33.0564,-27.3792 -25.3356,-85.7196 -7.2924,-118.694 2.334,17.5896 6.4812,35.0652 15.0444,52.2876 12.2892,-25.6356 8.1804,-72.462 2.1192,-118.151z"/>
  <path class="fil8" d="M1117.88 361.764c-104.078,-106.598 50.2104,-176.185 16.2468,-290.18 -10.806,71.4 -228.926,199.169 -16.2468,290.18z"/>
  <path class="fil8" d="M1257.67 359.293c61.29,-69.0336 44.4924,-166.942 12.6084,-245.542 10.4268,2.8092 198.716,181.078 -12.6084,245.542z"/>
 </g>
</svg>
