<?xml version="1.0" encoding="UTF-8"?>
<!DOCTYPE svg PUBLIC "-//W3C//DTD SVG 1.1//EN" "http://www.w3.org/Graphics/SVG/1.1/DTD/svg11.dtd">
<!-- Creator: CorelDRAW -->
<svg xmlns="http://www.w3.org/2000/svg" xml:space="preserve" width="3000px" height="900px" style="shape-rendering:geometricPrecision; text-rendering:geometricPrecision; image-rendering:optimizeQuality; fill-rule:evenodd; clip-rule:evenodd"
viewBox="0 0 3000 912"
 xmlns:xlink="http://www.w3.org/1999/xlink">
 <defs>
  <style type="text/css">
   <![CDATA[
    .fil1 {fill:#364153}
    .fil4 {fill:#333333}
    .fil2 {fill:#4C4C4C}
    .fil3 {fill:#7F7F7F}
    .fil8 {fill:#BA001F}
    .fil5 {fill:#DC0E00}
    .fil6 {fill:#FE8B00}
    .fil7 {fill:white}
    .fil0 {fill:#364153;fill-rule:nonzero}
   ]]>
  </style>
 </defs>
 <g id="Слой_x0020_1">
  <metadata id="CorelCorpID_0Corel-Layer"/>
  <path class="fil0" d="M2843.49 893.693l0.1428 -40.104 4.6308 0 2.2728 0 0.2148 0c3.9588,-0.3708 7.3752,-2.1108 10.0908,-5.2044 3.3012,-3.7344 5.874,-8.9676 7.746,-15.654 1.8876,-6.6996 3.288,-14.556 4.2456,-23.5944 0.9288,-9.0384 1.6152,-18.8184 2.0004,-29.3976l1.6008 -44.5656 103.237 0 0 118.416 20.3244 0 0 40.104 -24.1548 0 0 -18.0204 -108.04 0 0 18.0204 -24.312 0zm-841.976 -190.926l51.2688 0 0 21.8844 -51.2688 0 0 -21.8844zm-1295.55 172.906l0 -140.5 95.5908 0 -0.2148 22.0836 -75.8376 0 6.0312 -6.2304 0.2004 124.646 -25.77 0zm120.846 0l0 -140.5 57.9576 0c12.4632,0 23.1828,2.0244 32.1012,6.03 8.9184,4.0068 15.7788,9.7524 20.61,17.28 4.8456,7.47 7.2468,16.3656 7.2468,26.6736 0,10.2936 -2.4012,19.2036 -7.2468,26.688 -4.8312,7.5 -11.6916,13.2444 -20.61,17.2656 -8.9184,4.0056 -19.638,6.03 -32.1012,6.03l-43.4508 0 10.3476 -10.878 -10.3476 -11.2056 42.2496 0c11.5344,0 20.2248,-2.4516 26.0556,-7.3272 5.8464,-4.8756 8.7336,-11.748 8.7336,-20.5728 0,-8.9676 -2.8872,-15.8532 -8.7336,-20.6724 -5.8308,-4.8048 -14.5212,-7.2276 -26.0556,-7.2276l-42.2496 0 11.6628 -12.846 0 78.4692 0 2.808 0 49.9848 -26.1696 0zm119.86 0l63.36 -140.5 25.77 0 63.5604 140.5 -27.3564 0 -13.9932 -32.5056 -70.4352 0 -13.95 32.5056 -26.9556 0zm102.522 -52.9776l-31.716 -73.65 10.4772 0 -31.602 73.65 52.8408 0zm174.044 -87.522l26.1696 0 0 140.5 -26.1696 0 0 -60.192 -72.8508 0 0 60.192 -26.142 0 0 -140.5 26.142 0 0 58.0248 72.8508 0 0 -58.0248zm69.12 140.5l0 -140.5 25.77 0 0 99.7536 75.6516 -99.7536 24.3552 0 0 140.5 -25.77 0 0 -99.5544 -75.666 99.5544 -24.3408 0zm198.127 0l0 -124.831 6.2316 6.4152 -52.7124 0 0 -22.0836 119.102 0 0 22.0836 -52.6836 0 6.018 -6.4152 0 124.831 -25.956 0zm197.498 -140.5l26.1564 0 0 140.5 -26.1564 0 0 -60.192 -72.8364 0 0 60.192 -26.1696 0 0 -140.5 26.1696 0 0 58.0248 72.8364 0 0 -58.0248zm133.909 47.574c16.7808,0 29.7156,3.75 38.8488,11.2344 9.1188,7.4988 13.6632,18.7332 13.6632,33.7308 0,15.7824 -4.9884,27.7296 -14.9784,35.8272 -9.9912,8.07 -23.9124,12.1332 -41.7636,12.1332l-60.5736 0 0 -140.5 25.7844 0 0 47.574 39.0192 0zm-5.4168 72.852c10.0476,0 17.8668,-2.3388 23.4408,-7.0284 5.5596,-4.6764 8.3328,-11.4912 8.3328,-20.4588 0,-8.8248 -2.7444,-15.2976 -8.2332,-19.3608 -5.502,-4.0908 -13.3632,-6.1296 -23.5404,-6.1296l-33.6024 0 0 52.9776 33.6024 0zm78.2676 20.0736l0 -140.5 25.7556 0 0 140.5 -25.7556 0zm68.9064 0l0 -140.5 25.7844 0 0 99.7536 75.6516 -99.7536 24.3408 0 0 140.5 -25.7556 0 0 -99.5544 -75.6528 99.5544 -24.3684 0zm262.416 -13.8432l8.4468 -19.062c6.0324,4.1352 12.6348,7.314 19.8096,9.5244 7.176,2.2092 14.3364,3.378 21.4404,3.5208 7.1028,0.1284 13.578,-0.684 19.4088,-2.4096 5.832,-1.7388 10.4916,-4.3476 13.9788,-7.8264 3.5016,-3.4932 5.2308,-7.8408 5.2308,-13.0596 0,-6.2868 -2.5728,-10.992 -7.746,-14.1564 -5.1744,-3.1368 -12.1632,-4.7052 -21.0252,-4.7052l-32.802 0 0 -20.4576 30.7872 0c7.9176,0 14.0496,-1.626 18.4092,-4.8336 4.3584,-3.2076 6.5316,-7.5564 6.5316,-13.0308 0,-4.5612 -1.4292,-8.3256 -4.302,-11.2344 -2.8872,-2.9508 -6.7896,-5.16 -11.6772,-6.6432 -4.8888,-1.4688 -10.4052,-2.1816 -16.5084,-2.1096 -6.1032,0.0708 -12.4356,0.9972 -19.0236,2.808 -6.5604,1.8108 -12.8064,4.4628 -18.696,7.9272l-8.2608 -21.0576c8.8764,-4.6896 18.1524,-7.9692 27.8712,-9.8508 9.7332,-1.854 19.1664,-2.3952 28.2852,-1.6116 9.1044,0.8268 17.3232,2.88 24.6264,6.2304 7.3188,3.3504 13.2072,7.7268 17.6232,13.1592 4.4304,5.4168 6.6324,11.79 6.6324,19.1604 0,6.672 -1.7724,12.618 -5.3316,17.7504 -3.5448,5.16 -8.4036,9.1524 -14.5788,11.9604 -6.174,2.8092 -13.3488,4.2204 -21.5388,4.2204l1.014 -6.444c9.2484,0 17.3232,1.5828 24.2412,4.7328 6.918,3.1512 12.2628,7.4424 16.0932,12.9312 3.8172,5.5032 5.7324,11.8476 5.7324,19.0608 0,6.8436 -1.7304,12.888 -5.232,18.1776 -3.4728,5.2896 -8.232,9.7092 -14.2644,13.2444 -6.0456,3.5496 -12.9636,6.1584 -20.7384,7.8276 -7.7748,1.6812 -15.9648,2.3088 -24.5412,1.9104 -8.5896,-0.414 -17.1372,-1.8828 -25.6692,-4.4196 -8.5044,-2.538 -16.5948,-6.2736 -24.2268,-11.2344zm129.893 13.8432l63.3888 -140.5 25.7424 0 63.588 140.5 -27.3708 0 -14.0064 -32.5056 -70.4352 0 -13.95 32.5056 -26.9568 0zm102.523 -52.9776l-31.716 -73.65 10.4772 0 -31.602 73.65 52.8408 0zm75.252 52.9776l0 -140.5 62.9736 0c15.8508,0 28.1856,3.1224 37.0332,9.3516 8.8476,6.2028 13.278,15.1548 13.278,26.7888 0,11.5056 -4.2168,20.358 -12.6636,26.5884 -8.4612,6.2304 -19.596,9.324 -33.3876,9.324l3.6012 -7.2276c15.6936,0 27.828,3.1644 36.4188,9.4236 8.5896,6.3012 12.8772,15.4116 12.8772,27.3156 0,12.1896 -4.5024,21.7128 -13.4928,28.5984 -8.976,6.8868 -22.254,10.3368 -39.834,10.3368l-66.804 0zm25.77 -80.4792l35.0028 0c8.4468,0 14.8932,-1.7112 19.3236,-5.1324 4.4316,-3.3936 6.6324,-8.3256 6.6324,-14.7276 0,-6.714 -2.2008,-11.718 -6.6324,-15.0684 -4.4304,-3.3504 -10.8768,-5.0328 -19.3236,-5.0328l-35.0028 0 0 39.9612zm0 60.4056l40.2336 0c9.1188,0 16.0224,-1.6968 20.7252,-5.118 4.6872,-3.408 7.032,-8.64 7.032,-15.7536 0,-7.086 -2.3448,-12.2748 -7.032,-15.54 -4.7028,-3.2796 -11.6064,-4.9332 -20.7252,-4.9332l-40.2336 0 0 41.3448zm192.868 22.0836c-11.0064,0 -21.1248,-1.8108 -30.4008,-5.418 -9.234,-3.6072 -17.2944,-8.6676 -24.1416,-15.1692 -6.8172,-6.4716 -12.1344,-14.1132 -15.8784,-22.8672 -3.774,-8.7684 -5.6316,-18.3624 -5.6316,-28.7988 0,-10.4496 1.8576,-20.0592 5.6316,-28.812 3.744,-8.7396 9.0612,-16.3812 15.8784,-22.8684 6.8472,-6.486 14.9076,-11.5332 24.1416,-15.1548 9.276,-3.6204 19.3236,-5.4168 30.2004,-5.4168 10.9908,0 21.096,1.7964 30.2724,5.4168 9.204,3.6216 17.2224,8.6688 24.054,15.1548 6.8328,6.4872 12.1488,14.1288 15.894,22.8684 3.774,8.7528 5.6316,18.3624 5.6316,28.812 0,10.4364 -1.8576,20.0736 -5.6316,28.9128 -3.7452,8.8248 -9.0612,16.4664 -15.894,22.8672 -6.8316,6.4296 -14.85,11.448 -24.054,15.0552 -9.1764,3.6072 -19.1952,5.418 -30.072,5.418zm-0.2004 -22.896c7.1028,0 13.692,-1.1976 19.7244,-3.5928 6.0456,-2.4096 11.262,-5.874 15.6936,-10.3368 4.416,-4.4904 7.8744,-9.708 10.362,-15.6672 2.4576,-5.9316 3.7164,-12.5172 3.7164,-19.7604 0,-7.2276 -1.2588,-13.8288 -3.7164,-19.7736 -2.4876,-5.9592 -5.946,-11.1636 -10.362,-15.654 -4.4316,-4.476 -9.648,-7.9272 -15.6936,-10.3224 -6.0324,-2.4228 -12.6216,-3.6204 -19.7244,-3.6204 -7.104,0 -13.65,1.1976 -19.6104,3.6204 -5.9736,2.3952 -11.22,5.8464 -15.6936,10.3224 -4.488,4.4904 -7.9896,9.6948 -10.476,15.654 -2.4588,5.9448 -3.7164,12.546 -3.7164,19.7736 0,7.1004 1.2576,13.644 3.7164,19.6596 2.4864,6.0312 5.946,11.2776 10.362,15.768 4.4304,4.4628 9.648,7.9272 15.6936,10.3368 6.0312,2.3952 12.6204,3.5928 19.7244,3.5928zm130.336 -1.1976l71.4072 0 0 -96.3324 -55.1412 0 -1.0152 24.8772c-0.3852,9.3816 -0.9576,18.2484 -1.7004,26.6172 -0.7296,8.3544 -1.8864,15.9396 -3.4308,22.782 -1.5288,6.8148 -3.63,12.504 -6.3024,17.0376 -1.158,1.938 -2.4588,3.6492 -3.8172,5.0184z"/>
  <path class="fil0" d="M2721.46 402.236l0 -349.48 -105.192 0 0 353.249c0,67.044 30.384,120.526 77.8908,153.215 65.0472,44.7156 173.938,42.6336 237.14,-6.7416 42.198,-33.06 68.6988,-83.8344 68.6988,-146.473l0 -353.249 -104.428 0 0 349.48c0,128.7 -174.11,129.313 -174.11,0zm-1623.08 -349.375l-120.935 0 -119.278 350.173 -119.266 -350.173 -120.089 0 195.997 537.314 86.7252 0 196.844 -537.314zm391.009 379.243c0,-66.4548 -41.328,-102.347 -72.9408,-122.202 29.178,-19.0908 64.8372,-54.9948 64.8372,-113.032 0,-96.2184 -80.232,-155.018 -176.672,-155.018 -96.4272,0 -177.472,58.8 -177.472,155.018 0,58.0368 35.6472,93.9408 64.8372,113.032 -31.6128,19.8552 -72.1296,55.7472 -72.1296,122.202 0,105.377 82.656,162.788 184.764,162.788 102.12,0 184.776,-57.4116 184.776,-162.788zm-113.458 -232.169c0,39.6972 -29.9784,68.7324 -71.3184,68.7324 -41.328,0 -72.1176,-29.0352 -72.1176,-68.7324 0,-38.9568 30.7896,-68.7444 72.1176,-68.7444 41.34,0 71.3184,29.7876 71.3184,68.7444zm8.1036 230.63c0,41.9988 -34.8588,74.85 -79.422,74.85 -44.574,0 -79.41,-32.8512 -79.41,-74.85 0,-42.0096 34.836,-75.6012 79.41,-75.6012 44.5632,0 79.422,33.5916 79.422,75.6012zm545.401 1.5384c0,-66.4548 -41.328,-102.347 -72.93,-122.202 29.1672,-19.0908 64.8264,-54.9948 64.8264,-113.032 0,-96.2184 -80.2332,-155.018 -176.672,-155.018 -96.4284,0 -177.461,58.8 -177.461,155.018 0,58.0368 35.6472,93.9408 64.8264,113.032 -31.602,19.8552 -72.1296,55.7472 -72.1296,122.202 0,105.377 82.656,162.788 184.764,162.788 102.12,0 184.776,-57.4116 184.776,-162.788zm-113.458 -232.169c0,39.6972 -29.9784,68.7324 -71.3184,68.7324 -41.328,0 -72.1068,-29.0352 -72.1068,-68.7324 0,-38.9568 30.7788,-68.7444 72.1068,-68.7444 41.34,0 71.3184,29.7876 71.3184,68.7444zm8.1144 230.63c0,41.9988 -34.8588,74.85 -79.4328,74.85 -44.574,0 -79.41,-32.8512 -79.41,-74.85 0,-42.0096 34.836,-75.6012 79.41,-75.6012 44.574,0 79.4328,33.5916 79.4328,75.6012zm266.76 159.61l0 -113.021 -114.061 0 0 113.021 114.061 0zm474.048 0.0108l-120.31 -231.718c52.2024,-18.8712 98.376,-65.6796 98.376,-141.166 0,-89.8116 -65.0928,-164.546 -174.817,-164.546l-211.115 0 0 537.43 105.169 0 0 -214.373 75.6768 0 105.192 214.373 121.828 0zm-127.126 -372.883c0,41.5128 -30.2688,70.9536 -76.4304,70.9536l-99.1404 0 0 -141.894 99.1404 0c46.1616,0 76.4304,29.4288 76.4304,70.9404z"/>
  <g id="_91468376">
   <path id="_91454736" class="fil1" d="M290.483 698.98l116.736 -27.9036 -60.66 198.23 -56.0376 42.6864c-18.6996,-94.0068 -31.2108,-103.669 -0.0384,-213.013z"/>
   <path id="_91468472" class="fil1" d="M290.516 630.955l96.1068 -22.5516 108.112 -25.3896 -51.1032 61.4568 -153.124 36.0036c-13.908,-15.9012 -2.6016,-32.8992 0.0084,-49.5192z"/>
   <path id="_91467680" class="fil2" d="M290.579 544.477c-0.7824,-2.9616 -2.736,-3.6984 -5.3748,-4.3392 -87.3864,-21.2856 -197.336,-59.4828 -285.205,-63.8568l65.9616 78.9492 224.542 52.7736c11.8428,-20.562 19.818,-41.4492 0.0768,-63.5268z"/>
   <path id="_91468904" class="fil2" d="M290.502 395.335l-111.468 -26.1012 -132.06 -30.9024 18.3108 67.4604 225.179 52.7592c15.3624,-19.5156 15.3432,-40.656 0.0384,-63.216z"/>
   <polygon id="_91467416" class="fil2" points="290.506,698.972 173.77,671.069 234.476,869.292 290.514,912 "/>
   <path id="_91467656" class="fil3" d="M290.495 481.457l-102.989 -24.096 -122.093 -28.5324 -65.4108 47.448 290.483 68.3148c16.9476,-20.8872 22.4388,-41.8968 0.0096,-63.1344z"/>
   <path id="_91468160" class="fil1" d="M290.482 543.432c92.6364,-37.5216 189.622,-58.6764 290.572,-67.1496l-65.8368 78.9012 -224.735 52.8288 0 -64.5804z"/>
   <polygon id="_91467440" class="fil4" points="290.495,481.457 393.552,457.368 515.645,428.836 581.056,476.284 290.485,544.584 "/>
   <polygon id="_91467968" class="fil1" points="290.464,395.335 402.029,369.234 534.089,338.332 515.778,405.792 290.473,458.544 "/>
   <path id="_91467512" class="fil4" d="M290.518 630.948l-96.108 -22.5516 -107.664 -25.2696 51.1344 61.4508 152.622 35.8944c0.0072,-16.5108 0.0156,-33.018 0.0156,-49.524z"/>
   <path id="_91467560" class="fil5" d="M256.136 0.0012c77.0316,12.5268 202.164,287.479 33.9036,377.242 -202.636,-121.572 43.1136,-171.892 -33.9036,-377.242z"/>
   <path id="_91467776" class="fil6" d="M306.178 72.8304c104.191,201.244 -2.3376,276.696 -19.3284,284.881 -72.6936,-62.298 -49.3116,-112.912 -22.0524,-162.648 -0.0648,47.2932 10.0032,70.9212 23.334,79.434 -1.4508,-2.7264 -2.394,-5.712 -2.5716,-8.424 7.6176,59.2752 14.8464,6.1512 29.6616,-15.294 10.9452,-40.9788 12.4932,-101.524 -9.0432,-177.949z"/>
   <path id="_91467032" class="fil7" d="M299.23 152.408c62.8392,120.86 1.3656,177.428 -9.7944,182.802 -32.7972,-27.1188 -25.1376,-84.9048 -7.2348,-117.565 2.3148,17.4216 6.4308,34.7316 14.9256,51.7896 12.1932,-25.3908 8.1156,-71.772 2.1036,-117.026z"/>
   <path id="_91468664" class="fil8" d="M218.138 358.327c-103.262,-105.584 49.8168,-174.51 16.1196,-287.422 -10.7208,70.7208 -227.132,197.274 -16.1196,287.422z"/>
   <path id="_91467128" class="fil8" d="M356.826 355.879c60.81,-68.3772 44.1444,-165.354 12.51,-243.208 10.3452,2.784 197.159,179.356 -12.51,243.208z"/>
  </g>
 </g>
</svg>
